<?xml version="1.0" encoding="utf-8"?>
<!-- Generator: Adobe Illustrator 22.1.0, SVG Export Plug-In . SVG Version: 6.00 Build 0)  -->
<svg version="1.1" id="Layer_1" xmlns="http://www.w3.org/2000/svg" xmlns:xlink="http://www.w3.org/1999/xlink" x="0px" y="0px"
	 viewBox="0 0 90 100.7" style="enable-background:new 0 0 90 100.7;" xml:space="preserve">
<g>
	<g>
		<path d="M27.8,2.5C11.7,2.5,1.5,16.3,1.5,38.4c0,22.1,9.8,35.5,25.3,35.5c17.5,0,26.4-14.5,26.4-36.2C53.3,16.1,44.2,2.5,27.8,2.5
			L27.8,2.5z M27.4,64.8C19.2,64.8,14,55.2,14,38c0-16.8,5.4-26.4,13.4-26.4c8.9,0,13.4,9.8,13.4,26.4
			C40.8,54.8,36.1,64.8,27.4,64.8L27.4,64.8z"/>
	</g>
	<g>
		<polygon points="89,29.7 78.1,29.7 61.3,37.5 63.3,46.8 76.1,40.5 76.5,40.5 76.5,99.3 89,99.3 89,29.7 		"/>
	</g>
</g>
<g>
</g>
<g>
</g>
<g>
</g>
<g>
</g>
<g>
</g>
<g>
</g>
</svg>
