<?xml version="1.0" encoding="utf-8"?>
<!-- Generator: Adobe Illustrator 22.1.0, SVG Export Plug-In . SVG Version: 6.00 Build 0)  -->
<svg version="1.1" id="Layer_1" xmlns="http://www.w3.org/2000/svg" xmlns:xlink="http://www.w3.org/1999/xlink" x="0px" y="0px"
	 viewBox="0 0 117 115.8" style="enable-background:new 0 0 117 115.8;" xml:space="preserve">
<style type="text/css">
	.st0{fill:none;stroke:#000000;}
</style>
<g>
	<path class="st0" d="M4.1,41.7C4.2,18.6,14.7,4.3,31.2,4.3c16.9,0.1,26.2,14.3,26.1,36.8C57.2,63.9,48,78.9,30,78.9
		C14,78.8,4,64.8,4.1,41.7z M44.4,41.5c0.1-17.3-4.5-27.6-13.6-27.6c-8.3,0-13.8,10-13.9,27.5c-0.1,17.9,5.2,28,13.6,28
		C39.6,69.4,44.4,59,44.4,41.5z"/>
	<path class="st0" d="M63.5,98.6l11.6-10.8C90.3,73.5,98.3,65,98.3,55.5c0-7.1-4.4-13.1-13.9-13.1c-6.4,0-11.9,3.1-15.4,5.7
		l-3.8-8.4c5-4.3,13.2-7.8,22.6-7.7c17.2,0.1,24.2,11.1,24.1,21c-0.1,14.2-10.5,24.4-24.5,36.8l-5.5,5.2l0,0.4l31.2,0.1l0,10.3
		l-49.5-0.2L63.5,98.6z"/>
</g>
<g>
</g>
<g>
</g>
<g>
</g>
<g>
</g>
<g>
</g>
<g>
</g>
</svg>
