<?xml version="1.0" encoding="utf-8"?>
<!-- Generator: Adobe Illustrator 22.1.0, SVG Export Plug-In . SVG Version: 6.00 Build 0)  -->
<svg version="1.1" id="Layer_1" xmlns="http://www.w3.org/2000/svg" xmlns:xlink="http://www.w3.org/1999/xlink" x="0px" y="0px"
	 viewBox="0 0 115.8 125" style="enable-background:new 0 0 115.8 125;" xml:space="preserve">
<style type="text/css">
	.st0{fill:none;stroke:#000000;}
</style>
<g>
	<path class="st0" d="M3.9,43.7c0-22.9,10.4-37.1,26.8-37.1c16.8,0,26.1,14,26.1,36.4c0,22.5-9.1,37.5-27,37.5
		C13.9,80.4,3.9,66.6,3.9,43.7z M16.7,45.6C17.1,61.9,22.3,71,30.3,71C39.3,71,44,60.7,44,43.3C44,26.1,39.5,16,30.3,16
		c-8.2,0-13.7,10-13.7,27.3C16.7,44.1,16.7,44.8,16.7,45.6"/>
	<path class="st0" d="M66.1,39.4c4.2-2.8,12-5.7,21-5.7c15.7,0,22.3,8.5,22.3,17.4c0,7.6-5.3,13.7-14.1,16.6V68
		c9.9,1.5,17,8.5,17,17.9c0,11.5-10.2,21.6-28.8,21.6c-8.8,0-16.8-2.4-21-5.2l3.3-9.2c2.9,2,10.2,4.8,17,4.8
		c11.3,0,16.2-6.7,16.1-12.4c0-9.4-9.7-13.1-19.3-12.9h-4.9v-8.5h5.1c6.8,0,16.6-3.1,16.6-11.6c0-4.6-3.3-9.2-11.5-9.2
		c-6.6,0-12.6,3-15.5,5L66.1,39.4z"/>
</g>
</svg>
