<?xml version="1.0" encoding="utf-8"?>
<!-- Generator: Adobe Illustrator 22.1.0, SVG Export Plug-In . SVG Version: 6.00 Build 0)  -->
<svg version="1.1" id="Layer_1" xmlns="http://www.w3.org/2000/svg" xmlns:xlink="http://www.w3.org/1999/xlink" x="0px" y="0px"
	 viewBox="0 0 121.8 107.5" style="enable-background:new 0 0 121.8 107.5;" xml:space="preserve">
<style type="text/css">
	.st0{fill:none;stroke:#000000;}
</style>
<g>
	<path class="st0" d="M3.9,40.9C3.9,18.1,14.2,4,30.4,4C46.9,4,56.1,18,56.1,40.1c0,22.4-9,37.2-26.7,37.2
		C13.8,77.4,3.9,63.6,3.9,40.9z M43.5,40.5c0-17.1-4.5-27.1-13.5-27.1c-8.1,0-13.5,9.9-13.5,27.1C16.5,58.1,21.7,68,30,68
		C38.8,68,43.5,57.7,43.5,40.5z"/>
	<path class="st0" d="M97.2,103.4V84.7h-34v-7.5L95,31.9h14.2v43.6h9.9v9.2h-9.9v18.7H97.2z M97.2,54.3c0-4,0.4-7.9,0.5-11.6h-0.4
		c-2.2,4.2-4,7.5-6.1,10.8L75.7,75.3l0.2,0.2h21.3V54.3z"/>
</g>
</svg>
