<?xml version="1.0" encoding="utf-8"?>
<!-- Generator: Adobe Illustrator 22.1.0, SVG Export Plug-In . SVG Version: 6.00 Build 0)  -->
<svg version="1.1" id="Layer_2" xmlns="http://www.w3.org/2000/svg" xmlns:xlink="http://www.w3.org/1999/xlink" x="0px" y="0px"
	 viewBox="0 0 18.5 10" style="enable-background:new 0 0 18.5 10;" xml:space="preserve">
<g>
	<g>
		<path d="M6.7,0.4c-0.1,0-0.1,0-0.1,0.1L6.5,0.7C6.8,0.8,7.1,1,7.2,1.2v2.3L6,3.5V1.8l0-0.4c0-0.1,0-0.1-0.1-0.2
			C5.7,1.1,5.1,1,4.8,1C4.7,1,4.7,1,4.7,1L4.6,1.2c0.3,0.1,0.6,0.3,0.7,0.4v2.8c0,0.4,0,1,0.1,1.4h0.4C5.9,5.5,6,4.8,6,4.3V3.9
			l1.3,0v1.2c0,0.3,0,1,0.1,1.4h0.4c0.1-0.4,0.2-1.1,0.2-1.6V1.3l0-0.5c0-0.1,0-0.2-0.1-0.2C7.6,0.6,7,0.5,6.7,0.4L6.7,0.4z
			 M2.2,1.5C2.2,1.5,2.2,1.5,2.2,1.5L2,1.8c0.2,0.1,0.5,0.3,0.6,0.5C2.3,3.4,1.4,4.7,0.2,5.8c0,0,0,0.1,0,0.1L0.3,6c0,0,0,0,0.1,0
			s0,0,0.1,0c1-0.6,1.7-1.4,2.2-2.2l1.6,1.6c0.1,0.1,0.1,0.1,0.2,0.1c0,0,0,0,0.1,0c0.1,0,0.2-0.1,0.3-0.2c0,0,0-0.1,0-0.2
			C4.6,5,4.5,4.7,4.3,4.6L3.9,4.4l-1-1C3.1,3,3.3,2.6,3.4,2.2c0,0,0-0.1,0-0.2c0-0.1,0-0.1-0.1-0.2C3.1,1.7,2.6,1.6,2.2,1.5
			C2.2,1.5,2.2,1.5,2.2,1.5L2.2,1.5z M5.6,6.3c-1.2,0-2.1,0.7-2.1,1.7c0,1,0.9,1.8,2.1,1.8c1.2,0,2.1-0.7,2.1-1.8
			C7.7,6.9,6.8,6.3,5.6,6.3L5.6,6.3z M5.6,9.2c-0.8,0-1.4-0.5-1.4-1.2c0-0.8,0.6-1.2,1.4-1.2C6.4,6.7,7,7.2,7,7.9
			C7,8.7,6.4,9.2,5.6,9.2L5.6,9.2z"/>
	</g>
	<g>
		<path d="M15.1,0.4c-0.1,0-0.1,0-0.1,0l-0.1,0.2c0.3,0.1,0.7,0.3,0.8,0.5v3.4c0,0.4,0,1.1,0.1,1.4h0.4c0.1-0.4,0.2-1,0.2-1.6V4.2
			l1.7,0c0.1,0,0.1,0,0.2,0c0.1,0,0.1-0.2,0.1-0.3c0-0.1-0.1-0.1-0.1-0.2c-0.1,0-0.4-0.1-0.7-0.1c-0.1,0-0.1,0-0.2,0l-0.3,0.2
			l-0.7,0V1.4l0-0.5c0-0.1,0-0.2-0.1-0.2C16,0.6,15.4,0.5,15.1,0.4L15.1,0.4z M13.7,1.4C13.7,1.4,13.7,1.4,13.7,1.4l-0.4,0.2
			c-0.5,0-2.3,0.1-2.7,0.1c-0.2,0-0.6,0-0.8-0.1L9.8,1.7c0,0,0,0.1,0,0.1C10,2,10.3,2.1,10.5,2.2c0.2-0.1,0.5-0.1,0.7-0.1
			c0.3,0,1.5,0,2,0c-0.6,1.5-2,3.1-3.9,4.3c0,0,0,0.1,0,0.1l0.1,0.1c0,0,0,0,0,0c0,0,0,0,0.1,0c2.1-1,3.9-2.8,4.5-4.4l0.2-0.3
			c0,0,0-0.1,0-0.1C14.2,1.6,13.9,1.5,13.7,1.4C13.8,1.4,13.8,1.4,13.7,1.4L13.7,1.4z M16,6.2C16,6.2,15.9,6.3,16,6.2l-0.3,0.1
			c-0.6,0-3.3,0.1-3.8,0.1c-0.3,0-0.7,0-1-0.1l-0.1,0.1c0,0,0,0.1,0,0.1c0.2,0.2,0.5,0.3,0.8,0.4c0.2-0.1,0.6-0.1,0.9-0.2
			c0.4,0,2.3-0.1,3.1-0.1v1.7c0,0.3,0,0.9,0.1,1.3h0.4c0.1-0.4,0.2-1,0.2-1.4l0-1.5l0.1-0.3c0,0,0-0.1,0-0.1
			C16.4,6.4,16.2,6.3,16,6.2C16,6.3,16,6.2,16,6.2L16,6.2z"/>
	</g>
</g>
<g>
</g>
<g>
</g>
<g>
</g>
<g>
</g>
<g>
</g>
<g>
</g>
</svg>
