<?xml version="1.0" encoding="utf-8"?>
<!-- Generator: Adobe Illustrator 22.1.0, SVG Export Plug-In . SVG Version: 6.00 Build 0)  -->
<svg version="1.1" id="Layer_2" xmlns="http://www.w3.org/2000/svg" xmlns:xlink="http://www.w3.org/1999/xlink" x="0px" y="0px"
	 viewBox="0 0 39 8.3" style="enable-background:new 0 0 39 8.3;" xml:space="preserve">
<style type="text/css">
	.st0{fill:none;stroke:#000000;stroke-width:0.1;}
	.st1{stroke:#F7F8F8;stroke-width:0.1;stroke-miterlimit:10;}
</style>
<g>
	<path class="st0" d="M1.5,1.2c0-0.1-0.1-0.1-0.1-0.2c0-0.1-0.1-0.1-0.1-0.1L0.6,0.6V0.2h2.9v0.4L2.6,1l1.5,4.8l0.1,0.7h0.1L6,1.8
		l0.6-1.4h0.9l1.8,5.5l0.2,0.7h0.1L11.4,1l-1-0.4V0.2H13v0.4l-0.6,0.3C12.4,1,12.3,1,12.3,1c-0.1,0-0.1,0.1-0.1,0.2l-1.9,5.6
		L9.7,8.2H8.8L7,2.7L6.9,2H6.7L5.2,6.8L4.6,8.2H3.6L1.5,1.2z"/>
	<path class="st0" d="M17.6,8.3c-0.6,0-1.2-0.1-1.7-0.3S15,7.5,14.7,7.2c-0.3-0.4-0.6-0.8-0.7-1.3c-0.2-0.5-0.3-1.1-0.3-1.7
		c0-0.6,0.1-1.2,0.3-1.7c0.2-0.5,0.4-0.9,0.8-1.3c0.3-0.4,0.7-0.6,1.2-0.9C16.4,0.1,17,0,17.6,0c0.7,0,1.2,0.1,1.7,0.3
		c0.5,0.2,0.9,0.5,1.2,0.9c0.3,0.4,0.6,0.8,0.7,1.3c0.2,0.5,0.2,1.1,0.2,1.6c0,0.4,0,0.7-0.1,1c-0.1,0.3-0.2,0.7-0.3,1
		c-0.1,0.3-0.3,0.6-0.5,0.9c-0.2,0.3-0.5,0.5-0.7,0.7c-0.3,0.2-0.6,0.3-1,0.4S18,8.3,17.6,8.3z M17.7,7.6c0.4,0,0.8-0.1,1.1-0.2
		c0.3-0.2,0.6-0.4,0.8-0.7c0.2-0.3,0.4-0.6,0.5-1c0.1-0.4,0.2-0.8,0.2-1.3c0-0.6-0.1-1.1-0.2-1.5c-0.1-0.4-0.3-0.8-0.5-1.1
		C19.3,1.4,19,1.1,18.7,1c-0.3-0.2-0.7-0.2-1.2-0.2c-0.4,0-0.8,0.1-1.1,0.3c-0.3,0.2-0.6,0.4-0.8,0.7s-0.3,0.6-0.4,1
		C15.1,3.1,15,3.5,15,3.9c0,0.6,0.1,1.1,0.2,1.5c0.1,0.4,0.3,0.8,0.5,1.1s0.5,0.6,0.8,0.7C16.8,7.5,17.2,7.6,17.7,7.6z"/>
	<path class="st0" d="M22.8,7.6l0.9-0.3c0.1,0,0.1,0,0.1-0.1s0.1-0.1,0.1-0.2V1.2c0-0.1,0-0.1-0.1-0.2c0,0-0.1-0.1-0.1-0.1l-0.9-0.3
		V0.2h3.3c0.4,0,0.8,0,1.1,0.1c0.3,0.1,0.6,0.1,0.8,0.2c0.2,0.1,0.4,0.2,0.5,0.3c0.1,0.1,0.3,0.3,0.3,0.4C28.9,1.4,29,1.6,29,1.7
		c0,0.2,0,0.3,0,0.5c0,0.3-0.1,0.6-0.2,0.9c-0.1,0.3-0.3,0.5-0.4,0.6c-0.2,0.2-0.4,0.3-0.6,0.4c-0.2,0.1-0.4,0.2-0.6,0.2l2,2.6
		c0,0,0,0,0.1,0.1c0,0,0.1,0.1,0.1,0.1c0,0,0.1,0.1,0.1,0.1c0,0,0.1,0,0.1,0.1l0.9,0.3v0.5h-1.4c-0.2,0-0.3,0-0.4,0
		C28.7,8,28.6,8,28.5,8c-0.1-0.1-0.1-0.1-0.2-0.2c-0.1-0.1-0.1-0.2-0.3-0.3l-1.9-2.6l-1.1-0.2v2.5c0,0.1,0,0.1,0.1,0.2
		s0.1,0.1,0.1,0.1l0.9,0.3v0.5h-3.3V7.6z M25.1,3.9c0,0,0.1,0,0.2,0c0.1,0,0.2,0,0.3,0c0.1,0,0.2,0,0.3,0C25.9,4,26,4,26,4
		c0.3,0,0.6,0,0.8-0.1c0.2-0.1,0.4-0.2,0.5-0.3c0.1-0.1,0.3-0.3,0.3-0.5c0.1-0.2,0.1-0.4,0.1-0.6c0-0.3,0-0.5-0.1-0.7
		s-0.2-0.4-0.4-0.5S27,1.1,26.7,1s-0.5-0.1-0.8-0.1h-0.8V3.9z"/>
	<path class="st0" d="M31.3,7.6l0.9-0.3c0.1,0,0.1,0,0.1-0.1s0.1-0.1,0.1-0.2V1.2c0-0.1,0-0.1-0.1-0.2c0,0-0.1-0.1-0.1-0.1l-0.9-0.3
		V0.2h3.3v0.4l-0.9,0.3c-0.1,0-0.1,0-0.1,0.1s-0.1,0.1-0.1,0.2v3.1L36.6,1l-0.4-0.3V0.2h2.6v0.4l-0.9,0.3c-0.1,0-0.1,0-0.2,0.1
		c-0.1,0-0.2,0.1-0.2,0.2l-2.3,2.4l2.6,3.5c0,0,0,0.1,0.1,0.1S38,7.2,38,7.2c0,0,0.1,0.1,0.1,0.1c0,0,0.1,0,0.1,0.1L39,7.7v0.4h-2.7
		V7.7l0.3-0.3l-2.2-3l-0.8,0.4v2.4c0,0.1,0,0.1,0.1,0.2s0.1,0.1,0.1,0.1l0.9,0.3v0.5h-3.3V7.6z"/>
</g>
<g>
	<path class="st1" d="M1.2,1.2c0-0.1-0.1-0.1-0.1-0.2C1,1,1,0.9,0.9,0.9L0.3,0.6V0.2h2.9v0.4L2.3,1l1.5,4.8L4,6.6h0.1l1.6-4.8
		l0.6-1.4h0.9L9,5.8l0.2,0.7h0.1L11.1,1l-1-0.4V0.2h2.6v0.4l-0.6,0.3C12.1,1,12,1,12,1c-0.1,0-0.1,0.1-0.1,0.2L10,6.8L9.4,8.2H8.5
		L6.7,2.7L6.6,2H6.4L4.9,6.8L4.3,8.2H3.3L1.2,1.2z"/>
	<path class="st1" d="M17.3,8.3c-0.6,0-1.2-0.1-1.7-0.3s-0.9-0.5-1.2-0.8c-0.3-0.4-0.6-0.8-0.7-1.3c-0.2-0.5-0.3-1.1-0.3-1.7
		c0-0.6,0.1-1.2,0.3-1.7c0.2-0.5,0.4-0.9,0.8-1.3c0.3-0.4,0.7-0.6,1.2-0.9c0.5-0.2,1-0.3,1.6-0.3C18,0,18.5,0.1,19,0.3
		c0.5,0.2,0.9,0.5,1.2,0.9c0.3,0.4,0.6,0.8,0.7,1.3c0.2,0.5,0.2,1.1,0.2,1.6c0,0.4,0,0.7-0.1,1c-0.1,0.3-0.2,0.7-0.3,1
		c-0.1,0.3-0.3,0.6-0.5,0.9c-0.2,0.3-0.5,0.5-0.7,0.7c-0.3,0.2-0.6,0.3-1,0.4S17.7,8.3,17.3,8.3z M17.4,7.6c0.4,0,0.8-0.1,1.1-0.2
		C18.8,7.2,19,7,19.2,6.7c0.2-0.3,0.4-0.6,0.5-1c0.1-0.4,0.2-0.8,0.2-1.3c0-0.6-0.1-1.1-0.2-1.5c-0.1-0.4-0.3-0.8-0.5-1.1
		C19,1.4,18.7,1.1,18.4,1c-0.3-0.2-0.7-0.2-1.2-0.2c-0.4,0-0.8,0.1-1.1,0.3c-0.3,0.2-0.6,0.4-0.8,0.7s-0.3,0.6-0.4,1
		c-0.1,0.4-0.1,0.8-0.1,1.3c0,0.6,0.1,1.1,0.2,1.5c0.1,0.4,0.3,0.8,0.5,1.1s0.5,0.6,0.8,0.7C16.5,7.5,16.9,7.6,17.4,7.6z"/>
	<path class="st1" d="M22.5,7.6l0.9-0.3c0.1,0,0.1,0,0.1-0.1s0.1-0.1,0.1-0.2V1.2c0-0.1,0-0.1-0.1-0.2c0,0-0.1-0.1-0.1-0.1l-0.9-0.3
		V0.2h3.3c0.4,0,0.8,0,1.1,0.1c0.3,0.1,0.6,0.1,0.8,0.2c0.2,0.1,0.4,0.2,0.5,0.3c0.1,0.1,0.3,0.3,0.3,0.4c0.1,0.1,0.1,0.3,0.2,0.5
		c0,0.2,0,0.3,0,0.5c0,0.3-0.1,0.6-0.2,0.9c-0.1,0.3-0.3,0.5-0.4,0.6C28,3.9,27.8,4,27.6,4.1c-0.2,0.1-0.4,0.2-0.6,0.2L29,7
		c0,0,0,0,0.1,0.1c0,0,0.1,0.1,0.1,0.1c0,0,0.1,0.1,0.1,0.1c0,0,0.1,0,0.1,0.1l0.9,0.3v0.5h-1.4c-0.2,0-0.3,0-0.4,0
		C28.4,8,28.3,8,28.2,8c-0.1-0.1-0.1-0.1-0.2-0.2c-0.1-0.1-0.1-0.2-0.3-0.3l-1.9-2.6l-1.1-0.2v2.5c0,0.1,0,0.1,0.1,0.2
		s0.1,0.1,0.1,0.1l0.9,0.3v0.5h-3.3V7.6z M24.8,3.9c0,0,0.1,0,0.2,0c0.1,0,0.2,0,0.3,0c0.1,0,0.2,0,0.3,0c0.1,0,0.2,0,0.2,0
		c0.3,0,0.6,0,0.8-0.1c0.2-0.1,0.4-0.2,0.5-0.3c0.1-0.1,0.3-0.3,0.3-0.5c0.1-0.2,0.1-0.4,0.1-0.6c0-0.3,0-0.5-0.1-0.7
		S27.2,1.4,27,1.3S26.7,1.1,26.4,1s-0.5-0.1-0.8-0.1h-0.8V3.9z"/>
	<path class="st1" d="M31,7.6l0.9-0.3c0.1,0,0.1,0,0.1-0.1s0.1-0.1,0.1-0.2V1.2c0-0.1,0-0.1-0.1-0.2c0,0-0.1-0.1-0.1-0.1L31,0.6V0.2
		h3.3v0.4l-0.9,0.3c-0.1,0-0.1,0-0.1,0.1s-0.1,0.1-0.1,0.2v3.1L36.3,1l-0.4-0.3V0.2h2.6v0.4l-0.9,0.3c-0.1,0-0.1,0-0.2,0.1
		c-0.1,0-0.2,0.1-0.2,0.2l-2.3,2.4l2.6,3.5c0,0,0,0.1,0.1,0.1s0.1,0.1,0.1,0.1c0,0,0.1,0.1,0.1,0.1c0,0,0.1,0,0.1,0.1l0.9,0.3v0.4
		H36V7.7l0.3-0.3l-2.2-3l-0.8,0.4v2.4c0,0.1,0,0.1,0.1,0.2s0.1,0.1,0.1,0.1l0.9,0.3v0.5H31V7.6z"/>
</g>
<g>
</g>
<g>
</g>
<g>
</g>
<g>
</g>
<g>
</g>
<g>
</g>
</svg>
